# Blender v2.79 (sub 0) OBJ File: ''
# www.blender.org
mtllib untitled.mtl
o Cone
v 0.000000 -0.044807 -1.975804
v 0.195090 -0.043635 -1.975823
v 0.382683 -0.040162 -1.975880
v 0.555570 -0.034523 -1.975971
v 0.707107 -0.026935 -1.976094
v 0.831470 -0.017688 -1.976244
v 0.923880 -0.007138 -1.976415
v 0.980785 0.004309 -1.976601
v 1.000000 0.016214 -1.976794
v 0.980785 0.028119 -1.976987
v 0.923880 0.039566 -1.977173
v 0.831470 0.050116 -1.977344
v 0.707107 0.059363 -1.977494
v 0.555570 0.066952 -1.977617
v 0.382683 0.072591 -1.977709
v 0.195090 0.076063 -1.977765
v -0.000000 0.077236 -1.977784
v -0.195091 0.076063 -1.977765
v -0.382684 0.072591 -1.977709
v -0.555571 0.066952 -1.977617
v -0.707107 0.059363 -1.977494
v -0.831470 0.050116 -1.977344
v -0.923880 0.039566 -1.977173
v 0.000000 -0.016214 -3.976052
v -0.980785 0.028119 -1.976987
v -1.000000 0.016214 -1.976794
v -0.980785 0.004309 -1.976601
v -0.923879 -0.007138 -1.976415
v -0.831469 -0.017688 -1.976244
v -0.707106 -0.026935 -1.976094
v -0.555569 -0.034524 -1.975971
v -0.382682 -0.040163 -1.975880
v -0.195089 -0.043635 -1.975823
vn 0.0060 -0.9999 -0.0143
vn 0.0185 -0.9997 -0.0155
vn 0.0326 -0.9993 -0.0182
vn 0.0500 -0.9985 -0.0230
vn 0.0741 -0.9968 -0.0315
vn 0.1132 -0.9924 -0.0478
vn 0.1962 -0.9768 -0.0862
vn 0.5093 -0.8260 -0.2414
vn 0.5093 0.8178 -0.2680
vn 0.1962 0.9735 -0.1179
vn 0.1132 0.9903 -0.0800
vn 0.0741 0.9952 -0.0638
vn 0.0500 0.9972 -0.0554
vn 0.0326 0.9982 -0.0506
vn 0.0185 0.9987 -0.0479
vn 0.0060 0.9989 -0.0467
vn -0.0060 0.9989 -0.0467
vn -0.0185 0.9987 -0.0479
vn -0.0326 0.9982 -0.0506
vn -0.0500 0.9972 -0.0554
vn -0.0741 0.9952 -0.0638
vn -0.1132 0.9903 -0.0800
vn -0.1962 0.9735 -0.1179
vn -0.5093 0.8178 -0.2680
vn -0.5093 -0.8260 -0.2414
vn -0.1962 -0.9768 -0.0862
vn -0.1132 -0.9924 -0.0478
vn -0.0741 -0.9968 -0.0315
vn -0.0500 -0.9985 -0.0230
vn -0.0326 -0.9993 -0.0182
vn -0.0185 -0.9997 -0.0155
vn -0.0060 -0.9999 -0.0143
vn 0.0000 0.0162 0.9999
usemtl None
s off
f 1//1 24//1 2//1
f 2//2 24//2 3//2
f 3//3 24//3 4//3
f 4//4 24//4 5//4
f 5//5 24//5 6//5
f 6//6 24//6 7//6
f 7//7 24//7 8//7
f 8//8 24//8 9//8
f 9//9 24//9 10//9
f 10//10 24//10 11//10
f 11//11 24//11 12//11
f 12//12 24//12 13//12
f 13//13 24//13 14//13
f 14//14 24//14 15//14
f 15//15 24//15 16//15
f 16//16 24//16 17//16
f 17//17 24//17 18//17
f 18//18 24//18 19//18
f 19//19 24//19 20//19
f 20//20 24//20 21//20
f 21//21 24//21 22//21
f 22//22 24//22 23//22
f 23//23 24//23 25//23
f 25//24 24//24 26//24
f 26//25 24//25 27//25
f 27//26 24//26 28//26
f 28//27 24//27 29//27
f 29//28 24//28 30//28
f 30//29 24//29 31//29
f 31//30 24//30 32//30
f 32//31 24//31 33//31
f 33//32 24//32 1//32
f 1//33 2//33 3//33 4//33 5//33 6//33 7//33 8//33 9//33 10//33 11//33 12//33 13//33 14//33 15//33 16//33 17//33 18//33 19//33 20//33 21//33 22//33 23//33 25//33 26//33 27//33 28//33 29//33 30//33 31//33 32//33 33//33
o Cube_Cube.001
v -0.239147 -0.050859 2.083111
v -0.239147 0.050859 2.083111
v -0.239147 -0.050859 -2.083111
v -0.239147 0.050859 -2.083111
v 0.239147 -0.050859 2.083111
v 0.239147 0.050859 2.083111
v 0.239147 -0.050859 -2.083111
v 0.239147 0.050859 -2.083111
vn -1.0000 0.0000 0.0000
vn 0.0000 0.0000 -1.0000
vn 1.0000 0.0000 0.0000
vn 0.0000 0.0000 1.0000
vn 0.0000 -1.0000 0.0000
vn 0.0000 1.0000 0.0000
usemtl None
s off
f 34//34 35//34 37//34 36//34
f 36//35 37//35 41//35 40//35
f 40//36 41//36 39//36 38//36
f 38//37 39//37 35//37 34//37
f 36//38 40//38 38//38 34//38
f 41//39 37//39 35//39 39//39
